<?xml version="1.0" standalone="no"?>
<!DOCTYPE svg PUBLIC "-//W3C//DTD SVG 20010904//EN"
 "http://www.w3.org/TR/2001/REC-SVG-20010904/DTD/svg10.dtd">
<svg version="1.0" xmlns="http://www.w3.org/2000/svg"
 width="130.000000pt" height="130.000000pt" viewBox="0 0 130.000000 130.000000"
 preserveAspectRatio="xMidYMid meet">
<metadata>
Created by potrace 1.11, written by Peter Selinger 2001-2013
</metadata>
<g transform="translate(0.000000,130.000000) scale(0.100000,-0.100000)"
fill="#000000" stroke="none">
<path d="M490 1262 c-101 -28 -167 -69 -257 -158 -133 -131 -189 -272 -186
-469 2 -190 66 -339 199 -464 140 -132 302 -181 494 -150 167 26 338 156 419
318 57 113 66 156 66 301 0 122 -3 143 -28 218 -55 157 -168 290 -310 362 -99
49 -105 51 -232 56 -76 3 -115 0 -165 -14z m129 -12 c-9 -5 -41 -12 -70 -16
-30 -3 -58 -10 -63 -14 -5 -5 -14 -6 -21 -4 -22 9 -26 -12 -9 -45 20 -40 28
-40 21 2 l-6 32 15 -29 c9 -16 19 -24 23 -19 3 6 14 9 23 7 10 -1 20 1 23 6 3
4 21 7 41 5 38 -4 43 2 48 51 3 26 6 29 37 26 80 -6 111 -14 100 -25 -7 -7
-15 -6 -25 2 -12 10 -17 9 -25 -8 -18 -32 -13 -45 22 -60 17 -7 51 -22 74 -32
24 -10 47 -19 53 -19 5 0 10 -4 10 -10 0 -5 4 -10 10 -10 9 0 18 -6 72 -52 12
-10 24 -18 28 -18 11 0 30 23 30 37 0 16 -51 63 -62 57 -4 -3 -8 1 -8 9 0 26
-30 29 -41 4 -9 -21 -9 -20 -4 4 6 34 -4 43 -25 24 -16 -14 -17 -14 -13 10 4
20 1 25 -15 25 -11 0 -23 6 -26 13 -3 9 -9 7 -19 -6 -14 -17 -15 -16 -13 7 0
15 3 26 4 26 2 0 39 -18 82 -41 331 -172 424 -621 194 -933 -7 -11 -17 -17
-20 -13 -4 4 4 21 17 39 13 18 34 52 47 75 l22 42 -22 15 c-27 19 -34 13 -71
-54 -13 -24 -31 -46 -38 -49 -9 -3 -8 3 4 20 62 85 102 230 95 341 -4 45 -2
68 5 65 6 -2 10 -41 10 -95 0 -89 1 -92 21 -86 12 4 26 11 33 16 14 11 15 76
1 84 -7 4 -6 9 1 13 11 7 1 95 -13 109 -4 3 -20 1 -37 -5 -26 -10 -31 -9 -36
5 -36 113 -96 209 -173 274 -23 21 -77 52 -119 70 -70 31 -84 33 -181 32 -99
0 -109 -2 -181 -36 -134 -62 -245 -200 -279 -346 -15 -66 -15 -205 0 -262 48
-178 190 -324 359 -370 24 -6 75 -11 113 -11 59 0 68 -2 58 -14 -6 -8 -9 -19
-6 -24 4 -5 2 -12 -4 -16 -5 -3 -12 6 -16 20 -3 14 -10 25 -14 25 -8 0 -20
-34 -20 -57 0 -15 66 -18 75 -3 3 5 13 6 21 3 25 -9 -2 -20 -61 -24 -43 -4
-50 -2 -47 14 2 10 -3 17 -13 17 -13 0 -14 4 -5 20 11 21 5 27 -32 29 -43 2
-54 4 -64 12 -16 13 -36 -15 -32 -43 2 -19 9 -23 36 -22 17 0 32 -3 32 -6 0
-3 12 -7 27 -8 35 -3 43 -12 10 -12 -56 0 -135 24 -211 64 -264 139 -381 474
-270 768 73 194 240 339 428 373 91 17 107 18 85 5z m212 -163 c265 -128 354
-498 177 -735 -126 -170 -296 -231 -498 -180 -25 6 -47 14 -50 17 -3 3 -27 17
-54 31 -66 34 -142 120 -185 209 -32 68 -35 83 -39 187 -4 94 -1 124 16 181
42 138 141 249 270 304 62 26 76 28 177 26 104 -2 114 -5 186 -40z m154 -7 c3
-5 -1 -10 -10 -10 -9 0 -13 5 -10 10 3 6 8 10 10 10 2 0 7 -4 10 -10z m55
-875 c-69 -73 -261 -173 -268 -139 -2 8 -12 14 -23 14 -12 0 -17 5 -14 10 4 6
1 17 -5 25 -10 12 -9 16 6 21 95 31 170 73 224 125 l35 34 34 -33 34 -32 -23
-25z"/>
<path d="M666 1215 c-8 -30 -1 -45 20 -45 9 0 14 11 14 35 0 42 -24 49 -34 10z"/>
<path d="M402 1191 c-9 -5 -11 -18 -7 -37 l7 -29 -21 25 c-18 22 -25 21 -23
-1 1 -4 -6 -6 -16 -5 -11 1 -17 -6 -16 -21 0 -18 -3 -20 -18 -12 -16 9 -26 3
-59 -33 -21 -24 -37 -49 -34 -55 2 -7 -3 -13 -11 -13 -10 0 -14 -6 -10 -15 3
-8 1 -15 -5 -15 -16 0 -48 -42 -49 -62 0 -10 10 -23 22 -29 18 -10 24 -8 35 7
7 10 13 22 13 27 0 5 18 31 41 58 36 43 40 51 28 67 -13 16 -12 16 5 2 16 -13
20 -12 31 3 7 9 15 17 19 17 4 0 19 8 34 19 15 10 40 26 56 36 16 9 25 20 20
24 -5 3 -14 16 -19 28 -7 15 -14 20 -23 14z"/>
<path d="M1027 1022 c-20 -22 -21 -27 -4 -44 19 -21 36 -50 48 -80 6 -16 15
-28 19 -28 5 0 12 -20 16 -45 6 -42 8 -44 33 -39 35 9 46 20 34 36 -10 12 -22
54 -22 71 0 5 -11 23 -25 42 -14 18 -26 38 -26 44 0 5 -8 15 -17 20 -10 6 -14
11 -9 11 10 0 -13 30 -24 30 -4 0 -14 -8 -23 -18z m78 -122 c-3 -5 -11 -10
-16 -10 -6 0 -7 5 -4 10 3 6 11 10 16 10 6 0 7 -4 4 -10z"/>
<path d="M115 863 c-6 -25 -13 -57 -19 -88 -1 -5 -4 -14 -7 -20 -3 -5 -6 -35
-8 -66 -2 -51 0 -57 21 -64 l23 -8 -22 -4 c-27 -5 -31 -33 -5 -33 31 0 40 14
41 65 0 63 17 150 35 187 14 27 13 29 -14 43 -37 19 -37 20 -45 -12z m12 -149
c-3 -3 -12 -4 -19 -1 -8 3 -5 6 6 6 11 1 17 -2 13 -5z"/>
<path d="M107 564 c-16 -9 -25 -20 -20 -27 3 -6 8 -25 10 -42 3 -35 32 -105
44 -105 4 0 5 -10 2 -21 -5 -18 -3 -20 18 -15 13 3 18 3 12 0 -16 -7 -17 -30
-3 -39 6 -4 19 -1 28 6 14 11 14 10 -1 -8 -18 -20 -18 -22 0 -32 10 -6 14 -11
10 -11 -5 0 -1 -7 8 -16 15 -15 17 -15 30 2 19 25 18 39 0 58 -8 8 -15 17 -15
21 0 3 -11 22 -24 43 -13 20 -27 52 -31 70 -6 30 -10 33 -33 28 -26 -5 -26 -5
-5 6 18 9 21 16 16 37 -14 59 -15 61 -46 45z"/>
<path d="M1126 529 c-2 -8 -9 -29 -15 -48 -6 -19 -10 -35 -9 -37 9 -8 58 11
58 22 0 8 5 14 10 14 6 0 10 11 10 25 0 14 -4 25 -9 25 -5 0 -16 3 -25 6 -9 3
-18 0 -20 -7z"/>
<path d="M266 231 c-9 -14 4 -41 19 -41 15 0 28 27 19 41 -3 5 -11 9 -19 9 -8
0 -16 -4 -19 -9z"/>
<path d="M337 173 c-12 -26 -8 -32 20 -35 5 -1 13 -7 18 -14 9 -11 80 -54 89
-54 2 0 4 19 4 42 l1 43 -20 -25 -20 -25 6 25 c5 22 0 29 -33 48 -50 28 -50
28 -65 -5z"/>
<path d="M544 1096 c-3 -9 -12 -16 -20 -16 -8 0 -14 -7 -14 -15 0 -8 5 -15 10
-15 7 0 8 -13 4 -35 -7 -38 -2 -41 41 -25 24 9 26 14 19 43 -4 17 -8 41 -9 51
-2 25 -23 33 -31 12z m23 -72 c-3 -3 -12 -4 -19 -1 -8 3 -5 6 6 6 11 1 17 -2
13 -5z"/>
<path d="M654 1068 c-3 -4 4 -13 16 -20 11 -7 20 -17 20 -22 0 -5 -8 -2 -18 7
-20 19 -32 13 -32 -14 0 -12 11 -20 33 -24 17 -4 37 -12 44 -17 7 -5 17 -7 24
-3 6 4 15 2 19 -5 10 -16 30 -4 30 16 0 16 -37 53 -53 54 -5 0 -5 -9 -2 -20 3
-11 2 -20 -3 -20 -13 0 -24 44 -16 64 5 12 -1 15 -26 13 -18 -1 -34 -5 -36 -9z"/>
<path d="M414 1016 c-3 -8 -3 -19 0 -25 4 -5 2 -12 -4 -16 -6 -4 -8 -11 -4
-16 3 -5 10 -7 15 -3 6 3 20 -2 31 -13 15 -13 22 -15 25 -5 3 6 11 12 18 12
21 0 25 26 8 50 -11 16 -18 19 -27 10 -8 -8 -7 -13 2 -19 11 -7 10 -9 -2 -14
-9 -4 -16 -1 -16 6 0 7 -9 20 -20 30 -17 15 -21 15 -26 3z"/>
<path d="M619 944 c-1 -24 -2 -25 -6 -6 -4 22 -23 32 -23 11 0 -5 -4 -7 -10
-4 -5 3 -10 0 -10 -7 0 -10 -3 -9 -10 2 -14 23 -23 4 -9 -22 11 -21 11 -22 -5
-9 -15 12 -19 11 -35 -6 -39 -41 -50 -74 -58 -170 -5 -65 20 -179 37 -168 6 3
7 -1 4 -9 -3 -9 -1 -16 4 -16 6 0 14 -9 17 -20 4 -11 11 -18 16 -15 5 4 9 1 9
-6 0 -7 7 -4 15 7 13 18 14 18 9 -6 -5 -24 -5 -24 10 -6 9 11 16 24 16 30 0 5
2 7 5 4 3 -3 1 -17 -4 -32 -8 -19 -18 -26 -38 -26 -63 0 -163 -42 -202 -83
-32 -35 -23 -67 38 -126 63 -62 126 -83 239 -83 138 0 243 49 292 135 26 46
23 58 -31 97 -46 33 -97 50 -174 59 -47 6 -50 8 -52 36 l-2 30 10 -27 c6 -16
15 -28 21 -28 6 0 8 7 5 14 -4 10 -1 13 8 9 8 -3 18 2 21 11 3 9 10 14 14 11
11 -7 22 24 13 37 -3 6 -2 8 4 5 35 -22 54 174 24 259 -18 54 -43 88 -56 76
-5 -4 -6 0 -3 9 4 9 -2 20 -13 27 -15 10 -19 9 -19 0 0 -10 -3 -9 -9 1 -7 11
-9 11 -14 0 -4 -9 -6 -7 -6 5 -1 11 -4 16 -8 13 -3 -4 -12 -2 -20 4 -10 9 -13
6 -14 -17z m83 -36 c-7 -7 -12 -8 -12 -2 0 14 12 26 19 19 2 -3 -1 -11 -7 -17z
m21 -88 c33 -66 30 -170 -6 -227 -29 -45 -56 -70 -42 -37 27 63 11 235 -30
318 -20 39 -20 39 20 14 20 -13 45 -43 58 -68z m-103 77 c0 -1 -9 -20 -20 -41
-48 -95 -60 -239 -24 -293 25 -39 -4 -25 -31 15 -40 58 -48 103 -35 183 10 57
18 76 46 104 18 19 40 35 49 35 8 0 15 -1 15 -3z m41 -177 c5 -30 9 -68 8 -85
l0 -30 -14 30 c-7 17 -16 38 -19 48 -8 24 -26 12 -26 -16 -1 -12 -7 -35 -15
-52 -14 -28 -15 -25 -11 55 2 52 10 102 21 130 l19 44 14 -34 c7 -19 18 -59
23 -90z m63 -359 c22 -15 48 -31 56 -34 13 -5 13 -6 0 -6 -9 -1 -26 6 -38 15
-30 21 -42 11 -36 -34 l4 -37 -19 43 c-24 50 -38 54 -44 10 -3 -30 -4 -29 -5
8 -1 22 2 44 8 50 11 11 -5 84 -19 84 -4 0 -16 -18 -26 -39 -10 -22 -25 -43
-33 -46 -14 -5 -14 -4 0 12 9 10 26 38 38 63 l23 45 25 -53 c16 -35 38 -62 66
-81z m-4 75 c0 -11 -19 -15 -25 -6 -3 5 1 10 9 10 9 0 16 -2 16 -4z m44 -17
c-8 -14 -24 -10 -24 6 0 9 6 12 15 9 8 -4 12 -10 9 -15z m-244 1 c0 -5 -4 -10
-10 -10 -5 0 -10 5 -10 10 0 6 5 10 10 10 6 0 10 -4 10 -10z m-50 -15 c0 -8
-4 -15 -10 -15 -5 0 -10 7 -10 15 0 8 5 15 10 15 6 0 10 -7 10 -15z m348 4
c-2 -6 -8 -10 -13 -10 -5 0 -11 4 -13 10 -2 6 4 11 13 11 9 0 15 -5 13 -11z
m-401 -36 c-3 -3 -11 -2 -17 2 -9 6 -9 10 1 16 14 8 27 -7 16 -18z m448 18 c3
-5 1 -12 -5 -16 -5 -3 -10 1 -10 9 0 18 6 21 15 7z m-47 -39 c-15 -3 -78 23
-78 33 0 2 21 -4 48 -13 27 -9 40 -18 30 -20z m-337 7 c-24 -11 -46 -17 -49
-14 -6 6 58 34 78 34 8 0 -5 -9 -29 -20z m-109 -11 c-7 -7 -12 -8 -12 -2 0 6
3 14 7 17 3 4 9 5 12 2 2 -3 -1 -11 -7 -17z m533 12 c3 -5 1 -10 -4 -10 -6 0
-11 5 -11 10 0 6 2 10 4 10 3 0 8 -4 11 -10z m-363 -12 c-7 -7 -13 -32 -14
-57 l-1 -46 -6 45 c-5 33 -3 48 8 58 19 15 29 16 13 0z m67 -83 c0 -18 -1 -18
-9 3 -5 12 -15 22 -21 22 -8 0 -7 5 2 16 12 14 14 14 20 -3 4 -10 8 -27 8 -38z
m281 40 c0 -1 -16 -15 -36 -30 -27 -21 -34 -23 -26 -9 6 11 7 25 2 34 -7 13
-3 15 26 12 19 -2 34 -5 34 -7z m-467 -17 c9 -31 4 -32 -23 -3 -23 24 -23 25
-3 25 13 0 23 -8 26 -22z m258 -48 c39 0 38 -26 -1 -32 -36 -5 -40 -2 -39 31
0 14 3 20 6 14 2 -7 18 -13 34 -13z m-71 -33 c0 -5 -4 -5 -10 -2 -5 3 -10 14
-10 23 0 15 2 15 10 2 5 -8 10 -19 10 -23z"/>
<path d="M784 957 c-17 -10 -11 -56 9 -69 6 -4 17 -22 23 -40 12 -36 42 -49
56 -24 5 9 16 16 23 16 20 0 18 10 -4 38 -26 30 -31 28 -31 -13 0 -19 -4 -35
-9 -35 -4 0 -6 11 -4 24 3 13 0 27 -6 30 -14 9 -3 36 15 36 8 0 14 7 14 15 0
8 -7 15 -15 15 -8 0 -15 4 -15 9 0 12 -34 10 -56 -2z m36 -32 c0 -8 -2 -15 -4
-15 -2 0 -6 7 -10 15 -3 8 -1 15 4 15 6 0 10 -7 10 -15z"/>
<path d="M361 889 c2 -13 0 -29 -4 -36 -4 -6 -3 -14 3 -18 5 -3 15 3 22 15 7
11 19 20 28 20 10 0 7 -5 -8 -16 -12 -8 -20 -19 -17 -24 9 -15 -30 -31 -43
-18 -9 9 -12 8 -12 -4 0 -9 4 -19 9 -22 5 -3 7 -16 4 -29 -4 -21 -4 -22 11 -3
9 11 16 23 16 28 0 4 5 8 10 8 6 0 5 -8 -2 -20 -11 -17 -10 -22 2 -30 18 -11
33 -2 26 16 -3 7 -1 16 5 20 6 3 8 12 6 18 -3 7 2 27 10 44 13 26 13 35 3 47
-7 9 -20 15 -29 13 -9 -1 -22 1 -29 6 -10 6 -13 2 -11 -15z"/>
<path d="M901 761 c-6 -11 -11 -29 -11 -40 0 -12 -4 -21 -9 -21 -4 0 -6 11 -4
24 3 15 -1 25 -11 29 -18 7 -32 -8 -16 -18 6 -4 7 -12 3 -18 -7 -11 -9 -22
-16 -86 -3 -30 29 -53 43 -31 8 12 11 13 19 1 11 -17 22 0 12 18 -5 7 -6 22
-4 32 3 10 1 19 -5 19 -5 0 -13 -11 -16 -25 -4 -14 -11 -25 -17 -25 -6 0 -6 7
1 20 6 11 7 20 3 20 -4 0 0 5 10 11 9 5 17 17 17 24 0 8 5 16 10 16 6 1 14 2
19 3 21 3 22 16 3 41 -20 25 -21 25 -31 6z"/>
<path d="M351 719 c-12 -35 -2 -61 21 -53 19 6 19 5 1 -13 -10 -11 -24 -17
-32 -15 -9 4 -12 0 -7 -9 3 -8 9 -22 12 -31 7 -21 20 -23 27 -5 4 9 8 9 15 -2
9 -12 13 -12 25 -2 17 13 11 46 -18 108 -21 43 -33 49 -44 22z m49 -83 c0 -3
-4 -8 -10 -11 -5 -3 -10 -1 -10 4 0 6 5 11 10 11 6 0 10 -2 10 -4z"/>
<path d="M971 240 c-17 -10 -7 -40 13 -40 7 0 16 6 19 14 8 19 -15 37 -32 26z"/>
<path d="M890 174 c0 -8 -4 -13 -9 -9 -9 5 -88 -21 -104 -35 -4 -4 -5 -19 -1
-33 5 -23 10 -26 33 -20 14 3 29 11 33 17 4 6 8 7 8 2 0 -5 9 -1 20 9 11 10
20 14 20 10 0 -4 9 0 20 10 11 10 20 15 20 10 0 -4 7 -2 15 5 18 15 10 31 -10
24 -8 -4 -18 1 -21 10 -8 20 -24 21 -24 0z"/>
</g>
</svg>
